<mxfile host="app.diagrams.net" modified="2023-04-03T19:05:11.428Z" agent="Mozilla/5.0 (Windows NT 10.0; Win64; x64) AppleWebKit/537.36 (KHTML, like Gecko) Chrome/111.0.0.0 Safari/537.36" etag="EKp3v0LToz1Ifldu05Xe" version="21.1.2" type="device">
  <diagram name="P치gina-1" id="Hi4K1smm873LaLiiAZQo">
    <mxGraphModel dx="2261" dy="739" grid="1" gridSize="10" guides="1" tooltips="1" connect="1" arrows="1" fold="1" page="1" pageScale="1" pageWidth="827" pageHeight="1169" math="0" shadow="0">
      <root>
        <mxCell id="0" />
        <mxCell id="1" parent="0" />
        <mxCell id="9bIORxwP5y7StPp8KJ2L-1" value="" style="rounded=0;whiteSpace=wrap;html=1;" vertex="1" parent="1">
          <mxGeometry x="80" y="40" width="690" height="640" as="geometry" />
        </mxCell>
        <mxCell id="9bIORxwP5y7StPp8KJ2L-9" style="edgeStyle=orthogonalEdgeStyle;rounded=0;orthogonalLoop=1;jettySize=auto;html=1;entryX=1;entryY=0.5;entryDx=0;entryDy=0;" edge="1" parent="1" source="9bIORxwP5y7StPp8KJ2L-2" target="9bIORxwP5y7StPp8KJ2L-7">
          <mxGeometry relative="1" as="geometry">
            <Array as="points">
              <mxPoint x="10" y="360" />
              <mxPoint x="10" y="150" />
            </Array>
          </mxGeometry>
        </mxCell>
        <mxCell id="9bIORxwP5y7StPp8KJ2L-16" style="edgeStyle=orthogonalEdgeStyle;rounded=0;orthogonalLoop=1;jettySize=auto;html=1;entryX=1;entryY=0.5;entryDx=0;entryDy=0;" edge="1" parent="1" source="9bIORxwP5y7StPp8KJ2L-2" target="9bIORxwP5y7StPp8KJ2L-11">
          <mxGeometry relative="1" as="geometry">
            <Array as="points">
              <mxPoint x="160" y="280" />
              <mxPoint x="160" y="280" />
            </Array>
          </mxGeometry>
        </mxCell>
        <mxCell id="9bIORxwP5y7StPp8KJ2L-19" style="edgeStyle=orthogonalEdgeStyle;rounded=0;orthogonalLoop=1;jettySize=auto;html=1;entryX=1;entryY=0.5;entryDx=0;entryDy=0;" edge="1" parent="1" source="9bIORxwP5y7StPp8KJ2L-2" target="9bIORxwP5y7StPp8KJ2L-18">
          <mxGeometry relative="1" as="geometry">
            <Array as="points">
              <mxPoint x="10" y="280" />
              <mxPoint x="10" y="570" />
            </Array>
          </mxGeometry>
        </mxCell>
        <mxCell id="9bIORxwP5y7StPp8KJ2L-22" style="edgeStyle=orthogonalEdgeStyle;rounded=0;orthogonalLoop=1;jettySize=auto;html=1;entryX=1;entryY=0.5;entryDx=0;entryDy=0;" edge="1" parent="1" source="9bIORxwP5y7StPp8KJ2L-2" target="9bIORxwP5y7StPp8KJ2L-21">
          <mxGeometry relative="1" as="geometry">
            <Array as="points">
              <mxPoint x="180" y="420" />
              <mxPoint x="180" y="420" />
            </Array>
          </mxGeometry>
        </mxCell>
        <mxCell id="9bIORxwP5y7StPp8KJ2L-2" value="USUARIO" style="shape=umlActor;verticalLabelPosition=bottom;verticalAlign=top;html=1;outlineConnect=0;" vertex="1" parent="1">
          <mxGeometry x="-90" y="270" width="90" height="180" as="geometry" />
        </mxCell>
        <mxCell id="9bIORxwP5y7StPp8KJ2L-7" value="Iniciar sesi칩n" style="ellipse;whiteSpace=wrap;html=1;" vertex="1" parent="1">
          <mxGeometry x="140" y="110" width="130" height="80" as="geometry" />
        </mxCell>
        <mxCell id="9bIORxwP5y7StPp8KJ2L-11" value="Cerrar sesi칩n" style="ellipse;whiteSpace=wrap;html=1;" vertex="1" parent="1">
          <mxGeometry x="130" y="240" width="130" height="80" as="geometry" />
        </mxCell>
        <mxCell id="9bIORxwP5y7StPp8KJ2L-15" value="&amp;lt;&amp;lt;include&amp;gt;&amp;gt;" style="edgeStyle=orthogonalEdgeStyle;rounded=0;orthogonalLoop=1;jettySize=auto;html=1;entryX=1;entryY=0.5;entryDx=0;entryDy=0;dashed=1;" edge="1" parent="1" source="9bIORxwP5y7StPp8KJ2L-12" target="9bIORxwP5y7StPp8KJ2L-7">
          <mxGeometry relative="1" as="geometry" />
        </mxCell>
        <mxCell id="9bIORxwP5y7StPp8KJ2L-12" value="Reconocimiento facial" style="ellipse;whiteSpace=wrap;html=1;" vertex="1" parent="1">
          <mxGeometry x="400" y="110" width="130" height="80" as="geometry" />
        </mxCell>
        <mxCell id="9bIORxwP5y7StPp8KJ2L-18" value="Configurar aplicaci칩n" style="ellipse;whiteSpace=wrap;html=1;" vertex="1" parent="1">
          <mxGeometry x="140" y="530" width="130" height="80" as="geometry" />
        </mxCell>
        <mxCell id="9bIORxwP5y7StPp8KJ2L-21" value="Consultar datos" style="ellipse;whiteSpace=wrap;html=1;" vertex="1" parent="1">
          <mxGeometry x="140" y="380" width="130" height="80" as="geometry" />
        </mxCell>
        <mxCell id="9bIORxwP5y7StPp8KJ2L-23" value="&lt;font style=&quot;font-size: 24px;&quot;&gt;&lt;b&gt;SISTEMA&lt;/b&gt;&lt;/font&gt;" style="text;html=1;strokeColor=none;fillColor=none;align=center;verticalAlign=middle;whiteSpace=wrap;rounded=0;" vertex="1" parent="1">
          <mxGeometry x="130" y="60" width="60" height="30" as="geometry" />
        </mxCell>
      </root>
    </mxGraphModel>
  </diagram>
</mxfile>
